HIERARCHY
ROOT Hips
{
	OFFSET 0.000000 0.000000 0.000000 
	CHANNELS 6 Xposition Yposition Zposition Yrotation Zrotation Xrotation 
	JOINT Lumbar
	{
		OFFSET 0.000000 0.000000 0.000000 
		CHANNELS 3 Zrotation Xrotation Yrotation
		JOINT Neck
		{
			OFFSET 0.000000 0.445665 0.000000 
			CHANNELS 3 Zrotation Xrotation Yrotation
			End Site
			{
				OFFSET 0.000000 0.227535 0.000000 
			}
		}
		JOINT RightShoulder
		{
			OFFSET 0.019635 0.377685 0.194865 
			CHANNELS 3 Zrotation Xrotation Yrotation
			JOINT RightElbow
			{
				OFFSET 0.000000 -0.243375 0.000000 
				CHANNELS 2 Zrotation Yrotation
				JOINT RightWrist
				{
					OFFSET 0.000000 -0.264825 0.000000 
					CHANNELS 2 Zrotation Xrotation
					End Site
					{
						OFFSET 0.006600 -0.176220 0.000990 
					}
				}
			}
		}
		JOINT LeftShoulder
		{
			OFFSET 0.019635 0.377685 -0.194865 
			CHANNELS 3 Zrotation Xrotation Yrotation
			JOINT LeftElbow
			{
				OFFSET 0.000000 -0.243375 0.000000 
				CHANNELS 2 Zrotation Yrotation
				JOINT LeftWrist
				{
					OFFSET 0.000000 -0.264825 0.000000 
					CHANNELS 2 Zrotation Xrotation
					End Site
					{
						OFFSET 0.006600 -0.176220 -0.000990 
					}
				}
			}
		}
	}
	JOINT RightHip
	{
		OFFSET 0.052140 -0.069960 0.075570 
		CHANNELS 3 Zrotation Xrotation Yrotation
		JOINT RightKnee
		{
			OFFSET 0.000000 -0.402270 0.000000 
			CHANNELS 1 Zrotation
			JOINT RightAnkle
			{
				OFFSET 0.000000 -0.404085 0.000000 
				CHANNELS 3 Zrotation Xrotation Yrotation
				End Site
				{
					OFFSET 0.204105 -0.089430 0.008415 
				}
			}
		}
	}
	JOINT LeftHip
	{
		OFFSET 0.052140 -0.069960 -0.075570 
		CHANNELS 3 Zrotation Xrotation Yrotation
		JOINT LeftKnee
		{
			OFFSET 0.000000 -0.402270 0.000000 
			CHANNELS 1 Zrotation
			JOINT LeftAnkle
			{
				OFFSET 0.000000 -0.404085 0.000000 
				CHANNELS 3 Zrotation Xrotation Yrotation
				End Site
				{
					OFFSET 0.204105 -0.089430 -0.008415 
				}
			}
		}
	}
}
MOTION
Frames: 28
Frame Time: 0.02
-0.00143 2e-05 -0.00021 25.47427 -22.07428 1.76189 40.32283 -2.27072 -4.30751 5.37842 -4.57324 -0.99402 -0.28297 -13.77237 10.08187 37.52637 143.51439 20.51307 10.04908 10.06894 8.26385 -7.5281 35.06346 -93.61007 7.60048 -1.24766 53.01023 -12.49712 2.40222 -42.97734 -6.67008 -3.54439 -3.96423 40.93711 -4.61103 18.02918 -27.11462 -5.72964 1.50198 2.99337
-0.00207 -0.00014 -8e-05 25.50301 -22.09621 1.74747 40.33511 -2.28825 -4.19957 5.16286 -4.52295 -0.99573 -1.10391 -13.97399 9.8342 37.6307 138.32471 19.01028 9.20337 8.92382 8.33881 -6.57306 34.64061 -93.25944 7.31176 -1.27011 53.06977 -12.5583 2.26456 -42.97612 -6.66688 -3.53403 -3.95791 40.9975 -4.57083 18.18085 -27.13751 -5.73398 1.49681 2.98427
-0.00269 -0.00029 6e-05 25.53171 -22.11823 1.73289 40.34738 -2.30568 -4.09187 4.94764 -4.47258 -0.99744 -1.92408 -14.17512 9.58615 37.7345 133.15086 17.51196 8.36028 7.77979 8.41365 -5.61958 34.21885 -92.91019 7.02389 -1.29261 53.12911 -12.61916 2.12705 -42.97461 -6.66368 -3.52369 -3.9516 41.05788 -4.53048 18.33222 -27.16031 -5.73834 1.49162 2.97517
-0.00332 -0.00045 0.0002 25.56037 -22.1401 1.7185 40.35961 -2.32316 -3.98425 4.7327 -4.42241 -0.99915 -2.74273 -14.37615 9.33909 37.83847 127.97714 16.01377 7.51718 6.63787 8.48842 -4.6673 33.79721 -92.56037 6.73595 -1.31497 53.18846 -12.68013 1.9898 -42.97336 -6.6605 -3.51336 -3.9453 41.1181 -4.49037 18.48349 -27.18314 -5.74268 1.48646 2.96608
-0.00395 -0.00061 0.00033 25.58904 -22.16186 1.70431 40.37185 -2.34073 -3.87641 4.51755 -4.37238 -1.00086 -3.56162 -14.57758 9.09277 37.94306 122.78765 14.51119 6.67145 5.4956 8.5632 -3.71385 33.37469 -92.20993 6.44746 -1.33733 53.24803 -12.74144 1.85242 -42.97247 -6.6573 -3.50302 -3.93898 41.1783 -4.45047 18.63488 -27.20604 -5.74699 1.48136 2.957
-0.00458 -0.00076 0.00047 25.61779 -22.18444 1.68889 40.38421 -2.35786 -3.76903 4.30219 -4.3213 -1.00257 -4.38447 -14.77807 8.84106 38.0452 117.64698 13.02189 5.83396 4.34786 8.63815 -2.76031 32.95464 -91.86369 6.1611 -1.3602 53.30688 -12.80134 1.71462 -42.96962 -6.65411 -3.49266 -3.93268 41.23909 -4.40919 18.78613 -27.22862 -5.75145 1.47598 2.94787
-0.00521 -0.00092 0.00061 25.64637 -22.20525 1.67605 40.39626 -2.3759 -3.66087 4.08749 -4.27246 -1.00427 -5.19811 -14.98028 8.60065 38.15214 112.41402 11.50757 4.98087 3.21286 8.71282 -1.80836 32.52972 -91.50709 5.87002 -1.38171 53.36711 -12.86406 1.578 -42.97086 -6.65092 -3.48239 -3.92638 41.29853 -4.37078 18.9378 -27.25188 -5.7556 1.47113 2.93883
-0.00584 -0.00108 0.00074 25.67507 -22.22786 1.66067 40.40869 -2.39303 -3.5534 3.87219 -4.22143 -1.00598 -6.02086 -15.18081 8.34952 38.25467 107.26566 10.01622 4.14207 2.06527 8.78747 -0.85428 32.10996 -91.16425 5.58466 -1.40505 53.42606 -12.92408 1.43997 -42.96806 -6.64769 -3.47196 -3.92003 41.35939 -4.32966 19.0885 -27.27443 -5.76003 1.46585 2.92973
-0.00646 -0.00122 0.00089 25.70407 -22.25203 1.64278 40.42121 -2.40932 -3.4468 3.65595 -4.16815 -1.00769 -6.85297 -15.37977 8.08617 38.35177 102.22054 8.55269 3.32078 0.9047 8.86327 0.10043 31.69363 -90.82142 5.30072 -1.42837 53.48352 -12.98123 1.30138 -42.96133 -6.64458 -3.46165 -3.91378 41.42134 -4.2854 19.24041 -27.29642 -5.76484 1.4598 2.92047
-0.00712 -0.00143 0.001 25.73181 -22.26531 1.64114 40.43211 -2.43127 -3.33525 3.44452 -4.12908 -1.0094 -7.62596 -15.58924 7.89575 38.47999 96.58073 6.9283 2.39883 -0.174 8.93599 1.04561 31.24893 -90.42801 4.99188 -1.44501 53.54976 -13.05619 1.16953 -42.98021 -6.6413 -3.4516 -3.90747 41.47507 -4.2597 19.39259 -27.32256 -5.76758 1.45745 2.91186
-0.00769 -0.0015 0.00118 25.76192 -22.30277 1.60406 40.4471 -2.44075 -3.23414 3.22338 -4.05925 -1.01111 -8.52678 -15.77555 7.54993 38.54265 92.19646 5.64392 1.68925 -1.42968 9.01292 2.01444 30.86963 -90.17356 4.74627 -1.48009 53.59733 -13.09272 1.02122 -42.94321 -6.63804 -3.44038 -3.90097 41.54737 -4.19459 19.53957 -27.33936 -5.77463 1.44776 2.90207
-0.00803 -0.00125 0.00156 25.80079 -22.39781 1.47807 40.46799 -2.41992 -3.16233 2.97166 -3.91039 -1.01281 -9.7564 -15.90567 6.78558 38.42225 91.28407 5.29654 1.56809 -3.14224 9.12164 3.01583 30.62582 -90.02201 4.5826 -1.52788 53.59459 -13.02912 0.84646 -42.76601 -6.63758 -3.43082 -3.89639 41.66126 -4.02177 19.71109 -27.33492 -5.79403 1.41393 2.88727
-0.00827 -0.00085 0.00202 25.84151 -22.5189 1.31486 40.49408 -2.38577 -3.10104 2.71108 -3.72966 -1.01451 -11.11789 -16.01097 5.86386 38.23635 91.62814 5.29006 1.65924 -5.03782 9.2317 4.04359 30.45585 -90.04921 4.49566 -1.59935 53.57299 -12.92553 0.65229 -42.53006 -6.63666 -3.41911 -3.89112 41.79559 -3.80902 19.87079 -27.32021 -5.8177 1.37342 2.87158
-0.00854 -0.0005 0.00246 25.88007 -22.63367 1.16334 40.52109 -2.35521 -3.03436 2.45694 -3.56002 -1.01621 -12.43416 -16.12311 5.0088 38.08276 91.37895 5.12469 1.64935 -6.86851 9.32685 5.08476 30.28074 -90.19227 4.43819 -1.6871 53.55937 -12.8373 0.45403 -42.31261 -6.63407 -3.40532 -3.88462 41.92665 -3.61457 20.00982 -27.30744 -5.83903 1.33868 2.85745
-0.00889 -0.00026 0.00284 25.92468 -22.72473 1.03414 40.53377 -2.33524 -2.96968 2.19196 -3.40463 -1.0179 -13.691 -16.25482 4.17328 37.91927 91.22341 4.97583 1.65857 -8.62261 9.47888 6.03275 29.98567 -89.55472 4.12463 -1.66839 53.548 -12.76258 0.3078 -42.13042 -6.63922 -3.40477 -3.88482 42.03219 -3.42048 20.25634 -27.3065 -5.8619 1.29266 2.83852
-0.00904 0.00025 0.00336 25.95653 -22.87194 0.84921 40.57813 -2.28979 -2.90406 1.94824 -3.21198 -1.0196 -15.09988 -16.33879 3.26057 37.75969 91.17419 4.87451 1.67897 -10.57932 9.51713 7.16357 29.95812 -90.52137 4.34336 -1.86741 53.52771 -12.64807 0.05163 -41.85991 -6.62842 -3.37568 -3.87068 42.19592 -3.21482 20.27919 -27.27805 -5.88276 1.26822 2.82926
-0.00871 0.00145 0.00422 25.95816 -23.16244 0.52353 40.70369 -2.17967 -2.82738 1.7587 -2.92489 -1.02129 -16.9208 -16.30586 2.1655 37.63769 91.08392 4.81271 1.67308 -13.05087 9.20075 8.94892 30.64916 -96.4436 6.18537 -2.74743 53.48491 -12.45261 -0.52999 -41.36762 -6.57133 -3.27228 -3.81892 42.5133 -2.99869 19.66139 -27.17988 -5.8953 1.30784 2.84807
-0.00818 0.00291 0.00522 25.94602 -23.50939 0.14245 40.8619 -2.04397 -2.75074 1.5921 -2.60149 -1.02298 -18.88486 -16.22374 0.99876 37.5202 91.06733 4.79008 1.6728 -15.71853 8.77557 10.89263 31.60679 -103.88198 8.53302 -3.83184 53.43383 -12.21519 -1.217 -40.78663 -6.49876 -3.13959 -3.75247 42.88869 -2.77025 18.82373 -27.05367 -5.90597 1.36889 2.87642
-0.00772 0.00426 0.00618 25.93644 -23.8342 -0.21603 41.00846 -1.91834 -2.67761 1.4194 -2.29405 -1.02468 -20.7682 -16.15875 -0.12889 37.39325 91.02759 4.75277 1.67227 -18.29803 8.42868 12.65579 32.44423 -110.23451 10.53007 -4.76397 53.3887 -11.98414 -1.83784 -40.24176 -6.43469 -3.01752 -3.69147 43.23916 -2.5396 18.10371 -26.93788 -5.9186 1.41826 2.89964
-0.00734 0.00555 0.00705 25.94196 -24.14572 -0.56546 41.14172 -1.79862 -2.5889 1.22821 -1.98694 -1.02635 -22.72524 -16.11638 -1.28581 37.29409 90.966 4.70739 1.66619 -20.88555 7.96715 14.86006 33.28198 -118.20995 13.02011 -5.93924 53.33537 -11.80427 -2.53495 -39.7143 -6.36401 -2.90624 -3.63537 43.58523 -2.33994 17.30846 -26.83157 -5.92671 1.4756 2.92619
-0.00673 0.00704 0.00813 25.91349 -24.49719 -0.94575 41.31038 -1.66093 -2.53384 1.081 -1.67197 -1.02808 -24.55735 -16.01376 -2.40145 37.14047 90.97875 4.6922 1.67434 -23.4934 7.70967 16.20569 34.17918 -123.23643 14.62716 -6.66689 53.29528 -11.50967 -3.09993 -39.12804 -6.30397 -2.76621 -3.56592 43.95275 -2.07401 16.61785 -26.69893 -5.9437 1.52152 2.94808
-0.00555 0.00903 0.00974 25.78802 -24.95176 -1.4034 41.56873 -1.47762 -2.56002 1.05029 -1.33569 -1.03002 -26.0394 -15.77345 -3.3396 36.82286 90.91826 4.67098 1.68161 -26.1682 8.12087 14.93951 35.19421 -119.10192 13.45467 -6.0155 53.31182 -10.8973 -3.25749 -38.42054 -6.27231 -2.54855 -3.4603 44.37547 -1.62266 16.26953 -26.50102 -5.9859 1.53073 2.95478
-0.00413 0.01122 0.01154 25.63001 -25.44309 -1.88893 41.86152 -1.27754 -2.62205 1.06293 -0.99462 -1.03204 -27.38393 -15.47231 -4.23816 36.45286 90.96018 4.68831 1.70732 -28.84361 8.72825 12.83752 36.25585 -112.05777 11.41315 -4.92248 53.33854 -10.17325 -3.28162 -37.65361 -6.25274 -2.30404 -3.34231 44.81565 -1.10633 16.03388 -26.27756 -6.03702 1.52777 2.95646
-0.00279 0.01331 0.01325 25.49116 -25.91334 -2.35782 42.1386 -1.08671 -2.67547 1.05533 -0.66132 -1.03402 -28.77189 -15.18681 -5.18843 36.11547 91.1351 4.74325 1.75134 -31.4807 9.19207 11.25543 37.28352 -106.78106 9.91583 -4.09423 53.34913 -9.50782 -3.37751 -36.90144 -6.23087 -2.07536 -3.23186 45.24122 -0.62346 15.74748 -26.06543 -6.08387 1.53036 2.96039
-0.00154 0.01543 0.01498 25.3334 -26.40465 -2.84553 42.41724 -0.88827 -2.69708 1.0509 -0.30264 -1.036 -30.2479 -14.94574 -6.01269 35.74139 90.60533 4.5821 1.69069 -34.29011 9.87461 9.10326 38.37501 -99.71677 7.81912 -3.00819 53.40873 -8.80751 -3.42947 -36.19782 -6.19521 -1.83018 -3.11276 45.69753 -0.12329 15.45301 -25.85338 -6.1316 1.53349 2.96473
-5e-05 0.01754 0.01671 25.20745 -26.85933 -3.2998 42.7002 -0.70185 -2.79268 1.04974 0.00321 -1.03799 -31.50287 -14.604 -7.07182 35.4308 91.50389 4.86073 1.8427 -36.7322 10.1586 7.91824 39.34056 -95.61646 6.7415 -2.3446 53.36781 -8.15414 -3.54068 -35.38015 -6.19102 -1.6136 -3.00901 46.09254 0.35576 15.20307 -25.6356 -6.17959 1.53249 2.96699
0.00205 0.0196 0.01839 25.17801 -27.20963 -3.65556 42.98784 -0.5544 -3.09017 1.0481 0.16688 -1.04003 -32.20516 -13.95023 -8.93857 35.31183 96.86837 6.5094 2.66167 -38.20719 9.21933 9.7735 39.95026 -100.8172 8.82679 -3.01335 53.05513 -7.65589 -3.84037 -34.26264 -6.27384 -1.48083 -2.95008 46.31905 0.76349 15.06598 -25.4073 -6.22654 1.52144 2.96396
0.0044 0.02164 0.02006 25.18195 -27.52033 -3.97618 43.27822 -0.4195 -3.4595 1.04801 0.276 -1.04207 -32.68362 -13.20622 -11.01645 35.25769 103.57229 8.57074 3.67951 -39.30116 7.88826 12.59694 40.42953 -109.01427 11.93817 -4.11011 52.63952 -7.20939 -4.20499 -33.03312 -6.3874 -1.37827 -2.90725 46.48195 1.14701 14.96776 -25.17451 -6.27336 1.50681 2.95911
